<!DOCTYPE svg PUBLIC "-//W3C//DTD SVG 20010904//EN"
    "http://www.w3.org/TR/2001/REC-SVG-20010904/DTD/svg10.dtd">
<svg version="1.0" xmlns="http://www.w3.org/2000/svg"
     width="150" height="150" viewBox="100 100 100 100"
     preserveAspectRatio="xMidYMid meet">
    <metadata>
        Created by potrace 1.10, written by Peter Selinger 2001-2011
    </metadata>
    <g transform="translate(0.000000,300.000000) scale(0.100000,-0.100000)"
       fill="white" stroke="none">
        <path d="M1052 1980 c-102 -74 -93 -211 16 -269 33 -17 104 -16 140 3 74 38
105 149 60 215 -34 50 -71 73 -125 78 -42 4 -53 1 -91 -27z m151 -22 c26 -14
57 -68 57 -101 0 -134 -174 -175 -235 -57 -55 106 69 216 178 158z"/>
        <path d="M1457 1996 c-140 -42 -153 -229 -21 -288 65 -28 121 -19 168 28 60
60 67 137 19 202 -41 55 -104 77 -166 58z m103 -41 c62 -32 80 -129 35 -184
-76 -89 -215 -40 -215 75 0 56 12 79 53 104 38 24 87 25 127 5z"/>
        <path d="M1810 1999 c-60 -25 -100 -85 -100 -149 0 -194 281 -204 307 -11 6
46 -23 110 -64 139 -34 24 -109 35 -143 21z m120 -48 c14 -10 33 -34 44 -55
36 -72 -13 -154 -97 -163 -54 -6 -100 15 -122 57 -60 115 69 234 175 161z"/>
        <path d="M1087 1646 c-47 -17 -71 -38 -91 -81 -39 -82 0 -177 88 -210 56 -21
103 -14 146 22 42 35 60 74 60 129 0 59 -34 108 -94 135 -49 22 -59 22 -109 5z
m113 -41 c35 -18 60 -62 60 -105 0 -71 -53 -120 -130 -120 -32 0 -48 7 -78 34
-34 31 -37 39 -37 86 0 47 3 55 37 86 30 27 46 34 78 34 23 0 54 -7 70 -15z"/>
        <path d="M1422 1630 c-45 -28 -72 -76 -72 -130 0 -54 27 -102 72 -131 47 -29
137 -23 174 12 107 99 46 269 -96 269 -27 0 -58 -8 -78 -20z m164 -44 c30 -30
34 -40 34 -86 0 -46 -4 -56 -34 -86 -30 -30 -40 -34 -84 -34 -40 0 -57 6 -81
26 -37 31 -53 81 -40 128 15 54 60 86 121 86 44 0 54 -4 84 -34z" fill="#6643b5"/>
        <path d="M1790 1631 c-51 -27 -73 -62 -78 -126 -4 -48 -1 -60 23 -95 87 -125
280 -67 280 85 0 60 -20 95 -75 133 -41 27 -102 29 -150 3z m138 -31 c41 -25
66 -81 57 -126 -8 -46 -54 -91 -99 -100 -109 -20 -189 113 -119 196 45 54 104
65 161 30z"/>
        <path d="M1075 1296 c-47 -21 -83 -70 -91 -123 -14 -94 56 -173 153 -173 87 0
153 66 153 153 0 106 -121 186 -215 143z m133 -44 c50 -32 67 -109 36 -162
-38 -62 -128 -80 -182 -35 -79 66 -61 177 33 210 43 15 76 11 113 -13z"/>
        <path d="M1421 1278 c-77 -52 -98 -123 -58 -198 41 -79 130 -109 204 -71 98
49 116 175 37 252 -29 28 -43 33 -91 37 -48 3 -64 0 -92 -20z m139 -23 c62
-32 80 -129 35 -184 -76 -89 -215 -40 -215 75 0 56 12 79 53 104 38 24 87 25
127 5z"/>
        <path d="M1784 1282 c-48 -31 -75 -75 -76 -125 -3 -145 166 -219 264 -116 64
67 61 153 -7 219 -30 29 -43 34 -92 37 -45 3 -65 0 -89 -15z m157 -38 c105
-94 3 -264 -125 -210 -91 38 -101 166 -17 220 34 22 113 16 142 -10z"/>
    </g>
</svg>
